<?xml version="1.0" encoding="UTF-8"?>
<svg id="Layer_2" data-name="Layer 2" xmlns="http://www.w3.org/2000/svg" viewBox="0 0 323.97 211">
  <defs>
    <style>
      .cls-1 {
        fill: #fff;
      }
    </style>
  </defs>
  <g id="Layer_2-2" data-name="Layer 2">
    <g>
      <path class="cls-1" d="M249.96,56.3c9.21,0,16.7,7.49,16.7,16.7v103.3c0,9.21-7.49,16.7-16.7,16.7H34.7c-9.21,0-16.7-7.49-16.7-16.7v-103.3c0-9.21,7.49-16.7,16.7-16.7h215.27M249.96,38.3H34.7C15.53,38.3,0,53.84,0,73v103.3c0,19.16,15.53,34.7,34.7,34.7h215.27c19.16,0,34.7-15.53,34.7-34.7v-103.3c0-19.16-15.53-34.7-34.7-34.7h-.01Z"/>
      <path class="cls-1" d="M289.27,18c9.21,0,16.7,7.49,16.7,16.7v103.3c0,9.21-7.49,16.7-16.7,16.7H74c-9.21,0-16.7-7.49-16.7-16.7V34.7c0-9.21,7.49-16.7,16.7-16.7h215.27M289.27,0H74c-19.16,0-34.7,15.53-34.7,34.7v103.3c0,19.16,15.53,34.7,34.7,34.7h215.27c19.16,0,34.7-15.53,34.7-34.7V34.7c0-19.16-15.53-34.7-34.7-34.7h0Z"/>
    </g>
  </g>
</svg>