<?xml version="1.0" encoding="UTF-8"?>
<svg id="Layer_2" data-name="Layer 2" xmlns="http://www.w3.org/2000/svg" viewBox="0 0 476.76 84.43">
  <defs>
    <style>
      .cls-1 {
        fill: #fff;
        stroke: #fff;
        stroke-miterlimit: 10;
      }
    </style>
  </defs>
  <g id="Layer_2-2" data-name="Layer 2">
    <path class="cls-1" d="M.5,82.16V2.28h16.52v79.89H.5Z"/>
    <path class="cls-1" d="M31.65,82.16V2.28h18.53l23.84,50.03L97.86,2.28h18.17v79.89h-15.93V29.9l-25.61,52.27h-1.18l-25.72-52.27v52.27h-15.94Z"/>
    <path class="cls-1" d="M130.65,82.16V2.28h34.81c9.05,0,16.38,2.12,22.01,6.37,5.62,4.25,8.44,10.46,8.44,18.64s-2.79,14.5-8.38,18.7c-5.59,4.21-12.94,6.31-22.07,6.31h-18.29v29.85h-16.52ZM147.17,38.27h18.29c9.05,0,13.57-3.66,13.57-10.97,0-3.54-1.3-6.27-3.89-8.2-2.6-1.93-5.82-2.89-9.68-2.89h-18.29v22.07h0Z"/>
    <path class="cls-1" d="M241.92,50.3l31.03,30.92v.94h-20.06l-31.27-33.63v33.63h-16.52V2.28h34.81c9.12,0,16.48,2.06,22.07,6.2,5.58,4.13,8.38,10.25,8.38,18.35,0,7.08-2.44,12.76-7.32,17.05s-11.01,6.43-18.41,6.43h-2.71ZM221.63,38.27h18.29c3.93,0,7.18-.94,9.74-2.83,2.55-1.89,3.83-4.6,3.83-8.14s-1.3-6.27-3.89-8.2c-2.6-1.93-5.82-2.89-9.68-2.89h-18.29v22.07h0Z"/>
    <path class="cls-1" d="M281.69,82.16V2.28h57.23v14.4h-40.71v17.94h37.88v14.04h-37.88v19.12h40.71v14.4h-57.23v-.02Z"/>
    <path class="cls-1" d="M375.85,83.93c-9.91,0-18.84-2.01-26.79-6.02v-15.22h.94c8.18,4.17,17.38,6.25,27.61,6.25,3.93,0,7.35-.75,10.27-2.24,2.91-1.49,4.37-3.81,4.37-6.96,0-2.36-1.06-4.19-3.19-5.49-2.12-1.3-4.92-2.42-8.38-3.36l-12.86-3.19c-13.37-3.3-20.06-10.78-20.06-22.42,0-8.18,3.07-14.36,9.2-18.53,6.14-4.17,13.84-6.25,23.13-6.25s17.7,1.97,24.78,5.9v15.22h-.94c-7.47-4.09-15.97-6.14-25.49-6.14-3.78,0-7.06.75-9.85,2.24-2.79,1.5-4.19,3.74-4.19,6.73,0,4.17,3.58,7.12,10.74,8.85l12.74,3.19c6.45,1.65,11.56,4.35,15.34,8.08,3.78,3.74,5.66,8.55,5.66,14.46,0,5.51-1.58,10.19-4.72,14.04-3.15,3.85-7.14,6.63-11.98,8.32-4.84,1.69-10.29,2.54-16.34,2.54h0Z"/>
    <path class="cls-1" d="M443.23,83.93c-9.91,0-18.84-2.01-26.79-6.02v-15.22h.94c8.18,4.17,17.38,6.25,27.61,6.25,3.93,0,7.35-.75,10.27-2.24,2.91-1.49,4.37-3.81,4.37-6.96,0-2.36-1.06-4.19-3.19-5.49-2.12-1.3-4.92-2.42-8.38-3.36l-12.86-3.19c-13.37-3.3-20.06-10.78-20.06-22.42,0-8.18,3.07-14.36,9.2-18.53,6.14-4.17,13.84-6.25,23.13-6.25s17.7,1.97,24.78,5.9v15.22h-.94c-7.47-4.09-15.97-6.14-25.49-6.14-3.78,0-7.06.75-9.85,2.24-2.79,1.5-4.19,3.74-4.19,6.73,0,4.17,3.58,7.12,10.74,8.85l12.74,3.19c6.45,1.65,11.56,4.35,15.34,8.08,3.78,3.74,5.66,8.55,5.66,14.46,0,5.51-1.58,10.19-4.72,14.04-3.15,3.85-7.14,6.63-11.98,8.32-4.84,1.69-10.29,2.54-16.34,2.54h0Z"/>
  </g>
</svg>