<?xml version="1.0" encoding="UTF-8"?>
<svg id="Layer_2" data-name="Layer 2" xmlns="http://www.w3.org/2000/svg" viewBox="0 0 890.69 211">
  <defs>
    <style>
      .cls-1 {
        stroke: #fff;
        stroke-miterlimit: 10;
      }

      .cls-1, .cls-2 {
        fill: #fff;
      }
    </style>
  </defs>
  <g id="Layer_1-2" data-name="Layer 1">
    <g>
      <g>
        <path class="cls-2" d="M249.96,56.3c9.21,0,16.7,7.49,16.7,16.7v103.3c0,9.21-7.49,16.7-16.7,16.7H34.7c-9.21,0-16.7-7.49-16.7-16.7v-103.3c0-9.21,7.49-16.7,16.7-16.7h215.27M249.96,38.3H34.7C15.53,38.3,0,53.84,0,73v103.3c0,19.16,15.53,34.7,34.7,34.7h215.27c19.16,0,34.7-15.53,34.7-34.7v-103.3c0-19.16-15.53-34.7-34.7-34.7h0Z"/>
        <path class="cls-2" d="M289.27,18c9.21,0,16.7,7.49,16.7,16.7v103.3c0,9.21-7.49,16.7-16.7,16.7H74c-9.21,0-16.7-7.49-16.7-16.7V34.7c0-9.21,7.49-16.7,16.7-16.7h215.27M289.27,0H74c-19.16,0-34.7,15.53-34.7,34.7v103.3c0,19.16,15.53,34.7,34.7,34.7h215.27c19.16,0,34.7-15.53,34.7-34.7V34.7c0-19.16-15.53-34.7-34.7-34.7h0Z"/>
      </g>
      <g>
        <path class="cls-1" d="M368.32,121.8V41.92h16.52v79.89h-16.52Z"/>
        <path class="cls-1" d="M399.47,121.8V41.92h18.53l23.84,50.03,23.84-50.03h18.17v79.89h-15.93v-52.27l-25.61,52.27h-1.18l-25.72-52.27v52.27h-15.93Z"/>
        <path class="cls-1" d="M498.47,121.8V41.92h34.81c9.05,0,16.38,2.12,22.01,6.37,5.62,4.25,8.44,10.46,8.44,18.64s-2.79,14.5-8.38,18.7c-5.59,4.21-12.94,6.31-22.07,6.31h-18.29v29.85h-16.52ZM514.99,77.91h18.29c9.05,0,13.57-3.66,13.57-10.97,0-3.54-1.3-6.27-3.89-8.2-2.6-1.93-5.82-2.89-9.68-2.89h-18.29v22.07Z"/>
        <path class="cls-1" d="M609.74,89.94l31.03,30.92v.94h-20.06l-31.27-33.63v33.63h-16.52V41.92h34.81c9.12,0,16.48,2.06,22.07,6.2,5.58,4.13,8.38,10.25,8.38,18.35,0,7.08-2.44,12.76-7.32,17.05-4.88,4.29-11.01,6.43-18.41,6.43h-2.71ZM589.45,77.91h18.29c3.93,0,7.18-.94,9.74-2.83,2.55-1.89,3.83-4.6,3.83-8.14s-1.3-6.27-3.89-8.2c-2.6-1.93-5.82-2.89-9.68-2.89h-18.29v22.07Z"/>
        <path class="cls-1" d="M649.51,121.8V41.92h57.23v14.4h-40.71v17.94h37.88v14.04h-37.88v19.12h40.71v14.4h-57.23Z"/>
        <path class="cls-1" d="M743.67,123.57c-9.91,0-18.84-2.01-26.79-6.02v-15.22h.94c8.18,4.17,17.38,6.25,27.61,6.25,3.93,0,7.35-.75,10.27-2.24,2.91-1.49,4.37-3.81,4.37-6.96,0-2.36-1.06-4.19-3.19-5.49-2.12-1.3-4.92-2.42-8.38-3.36l-12.86-3.19c-13.37-3.3-20.06-10.78-20.06-22.42,0-8.18,3.07-14.36,9.2-18.53,6.14-4.17,13.84-6.25,23.13-6.25s17.7,1.97,24.78,5.9v15.22h-.94c-7.47-4.09-15.97-6.14-25.49-6.14-3.78,0-7.06.75-9.85,2.24-2.79,1.5-4.19,3.74-4.19,6.73,0,4.17,3.58,7.12,10.74,8.85l12.74,3.19c6.45,1.65,11.56,4.35,15.34,8.08,3.78,3.74,5.66,8.55,5.66,14.46,0,5.51-1.58,10.19-4.72,14.04-3.15,3.85-7.14,6.63-11.98,8.32-4.84,1.69-10.29,2.54-16.34,2.54Z"/>
        <path class="cls-1" d="M811.05,123.57c-9.91,0-18.84-2.01-26.79-6.02v-15.22h.94c8.18,4.17,17.38,6.25,27.61,6.25,3.93,0,7.35-.75,10.27-2.24,2.91-1.49,4.37-3.81,4.37-6.96,0-2.36-1.06-4.19-3.19-5.49-2.12-1.3-4.92-2.42-8.38-3.36l-12.86-3.19c-13.37-3.3-20.06-10.78-20.06-22.42,0-8.18,3.07-14.36,9.2-18.53,6.14-4.17,13.84-6.25,23.13-6.25s17.7,1.97,24.78,5.9v15.22h-.94c-7.47-4.09-15.97-6.14-25.49-6.14-3.78,0-7.06.75-9.85,2.24-2.79,1.5-4.19,3.74-4.19,6.73,0,4.17,3.58,7.12,10.74,8.85l12.74,3.19c6.45,1.65,11.56,4.35,15.34,8.08,3.78,3.74,5.66,8.55,5.66,14.46,0,5.51-1.58,10.19-4.72,14.04-3.15,3.85-7.14,6.63-11.98,8.32-4.84,1.69-10.29,2.54-16.34,2.54Z"/>
        <path class="cls-1" d="M377.32,148.14c-.99,0-1.9-.21-2.74-.62-.84-.41-1.49-1-1.96-1.76v2.04h-3.72v-19.63h3.72v6.8c.47-.76,1.12-1.35,1.96-1.76.84-.41,1.75-.62,2.74-.62,2.03,0,3.66.75,4.87,2.25,1.21,1.5,1.82,3.34,1.82,5.5s-.61,4.05-1.82,5.54c-1.21,1.49-2.84,2.24-4.87,2.24ZM376.43,144.81c1.18,0,2.11-.42,2.81-1.27.7-.85,1.05-1.91,1.05-3.18s-.35-2.3-1.05-3.15c-.7-.85-1.64-1.27-2.81-1.27s-2.13.42-2.86,1.27c-.73.85-1.09,1.9-1.09,3.15s.36,2.31,1.08,3.16c.72.86,1.67,1.29,2.87,1.29Z"/>
        <path class="cls-1" d="M386.54,152.14v-.22l3.28-6.5-6.02-12.29v-.2h4.14l3.92,8.65,4-8.65h4.12v.2l-9.32,19.01h-4.12Z"/>
        <path class="cls-1" d="M409.36,131.23c-.43.41-.97.62-1.62.62s-1.2-.21-1.64-.62c-.44-.41-.66-.93-.66-1.57s.21-1.15.64-1.55c.43-.4.98-.6,1.65-.6s1.19.2,1.62.6c.43.4.64.92.64,1.55s-.21,1.16-.64,1.57ZM405.86,152.14v-19.21h3.72v19.21h-3.72Z"/>
        <path class="cls-1" d="M418.48,148.14c-2.05,0-3.69-.75-4.9-2.24-1.21-1.49-1.82-3.34-1.82-5.54s.61-4.02,1.82-5.52c1.21-1.49,2.85-2.24,4.9-2.24.97,0,1.88.21,2.72.62s1.49,1,1.96,1.76v-2.04h3.72v14.87h-3.72v-2.04c-.47.77-1.12,1.35-1.96,1.76s-1.75.62-2.72.62ZM419.35,144.81c1.19,0,2.15-.43,2.87-1.29.72-.86,1.08-1.91,1.08-3.16s-.36-2.3-1.09-3.15c-.73-.85-1.68-1.27-2.86-1.27s-2.11.42-2.81,1.27c-.7.85-1.05,1.9-1.05,3.15s.35,2.33,1.05,3.18c.7.85,1.64,1.27,2.81,1.27Z"/>
        <path class="cls-1" d="M430.08,147.8v-18.96h6.86c3.02,0,5.42.83,7.2,2.49,1.77,1.66,2.66,3.98,2.66,6.94s-.89,5.3-2.66,6.99-4.17,2.53-7.2,2.53h-6.86ZM434,144.39h2.94c1.83,0,3.26-.55,4.3-1.65,1.04-1.1,1.55-2.59,1.55-4.45s-.52-3.34-1.55-4.41c-1.04-1.07-2.47-1.61-4.3-1.61h-2.94v12.12Z"/>
        <path class="cls-1" d="M456.09,148.2c-2.37,0-4.26-.71-5.66-2.13-1.4-1.42-2.1-3.32-2.1-5.71s.69-4.17,2.06-5.63,3.18-2.18,5.42-2.18,3.84.7,5.01,2.1c1.18,1.4,1.76,3.26,1.76,5.57,0,.45-.04.92-.11,1.4h-10.33c.07,1.06.54,1.89,1.39,2.46s1.87.87,3.07.87c1.98,0,3.73-.48,5.26-1.46h.2v3.36c-1.66.9-3.65,1.34-5.96,1.34ZM452.11,138.9h6.83c0-1.01-.27-1.8-.81-2.38-.54-.58-1.32-.87-2.32-.87-1.06,0-1.92.28-2.58.84-.65.56-1.03,1.36-1.12,2.41Z"/>
        <path class="cls-1" d="M468.69,147.8l-5.91-14.67v-.2h4.06l3.84,10.7,3.81-10.7h4.06v.2l-5.91,14.67h-3.95Z"/>
        <path class="cls-1" d="M486.33,148.2c-2.37,0-4.26-.71-5.66-2.13-1.4-1.42-2.1-3.32-2.1-5.71s.69-4.17,2.06-5.63,3.18-2.18,5.42-2.18,3.84.7,5.01,2.1c1.18,1.4,1.76,3.26,1.76,5.57,0,.45-.04.92-.11,1.4h-10.33c.07,1.06.54,1.89,1.39,2.46s1.87.87,3.07.87c1.98,0,3.73-.48,5.26-1.46h.2v3.36c-1.66.9-3.65,1.34-5.96,1.34ZM482.35,138.9h6.83c0-1.01-.27-1.8-.81-2.38-.54-.58-1.32-.87-2.32-.87-1.06,0-1.92.28-2.58.84-.65.56-1.03,1.36-1.12,2.41Z"/>
        <path class="cls-1" d="M495.06,147.8v-19.63h3.72v19.63h-3.72Z"/>
        <path class="cls-1" d="M514.33,146.01c-1.44,1.46-3.3,2.18-5.6,2.18s-4.16-.73-5.6-2.18-2.16-3.34-2.16-5.66.72-4.17,2.16-5.63,3.3-2.18,5.6-2.18,4.16.73,5.6,2.18,2.16,3.33,2.16,5.63-.72,4.2-2.16,5.66ZM505.8,143.53c.74.85,1.71,1.27,2.93,1.27s2.19-.42,2.93-1.27c.74-.85,1.11-1.91,1.11-3.18s-.37-2.3-1.12-3.15c-.75-.85-1.72-1.27-2.91-1.27s-2.17.42-2.91,1.27c-.75.85-1.12,1.9-1.12,3.15s.37,2.33,1.11,3.18Z"/>
        <path class="cls-1" d="M518.67,152.14v-19.21h3.72v2.04c.47-.76,1.12-1.35,1.96-1.76.84-.41,1.75-.62,2.74-.62,2.03,0,3.66.75,4.87,2.25,1.21,1.5,1.82,3.34,1.82,5.5s-.61,4.05-1.82,5.54c-1.21,1.49-2.84,2.24-4.87,2.24-.99,0-1.9-.21-2.74-.62-.84-.41-1.49-1-1.96-1.76v6.38h-3.72ZM526.2,144.81c1.18,0,2.11-.42,2.81-1.27.7-.85,1.05-1.91,1.05-3.18s-.35-2.3-1.05-3.15c-.7-.85-1.64-1.27-2.81-1.27s-2.13.42-2.86,1.27c-.73.85-1.09,1.9-1.09,3.15s.36,2.31,1.08,3.16c.72.86,1.67,1.29,2.87,1.29Z"/>
        <path class="cls-1" d="M535.97,147.8v-14.87h3.72v1.93c.41-.73,1.01-1.3,1.79-1.71.78-.41,1.62-.62,2.52-.62,2.09,0,3.5.89,4.23,2.66.45-.82,1.11-1.47,1.97-1.95.87-.48,1.8-.71,2.79-.71,1.51,0,2.68.48,3.5,1.43.82.95,1.23,2.23,1.23,3.84v10h-3.72v-8.76c0-.95-.21-1.72-.63-2.29s-1.06-.87-1.92-.87-1.53.3-2.02.9-.73,1.35-.73,2.27v8.76h-3.72v-8.76c0-.95-.21-1.72-.63-2.29s-1.06-.87-1.92-.87-1.53.3-2.02.9-.73,1.35-.73,2.27v8.76h-3.72Z"/>
        <path class="cls-1" d="M567.53,148.2c-2.37,0-4.26-.71-5.66-2.13-1.4-1.42-2.1-3.32-2.1-5.71s.69-4.17,2.06-5.63,3.18-2.18,5.42-2.18,3.84.7,5.01,2.1c1.18,1.4,1.76,3.26,1.76,5.57,0,.45-.04.92-.11,1.4h-10.33c.07,1.06.54,1.89,1.39,2.46s1.87.87,3.07.87c1.98,0,3.73-.48,5.26-1.46h.2v3.36c-1.66.9-3.65,1.34-5.96,1.34ZM563.55,138.9h6.83c0-1.01-.27-1.8-.81-2.38-.54-.58-1.32-.87-2.32-.87-1.06,0-1.92.28-2.58.84-.65.56-1.03,1.36-1.12,2.41Z"/>
        <path class="cls-1" d="M576.26,147.8v-14.87h3.72v1.93c.95-1.55,2.46-2.32,4.51-2.32,1.55,0,2.81.49,3.79,1.46.98.97,1.47,2.23,1.47,3.78v10.02h-3.72v-8.76c0-.99-.25-1.76-.74-2.32-.5-.56-1.22-.84-2.17-.84s-1.71.29-2.28.87-.85,1.34-.85,2.29v8.76h-3.72Z"/>
        <path class="cls-1" d="M593.87,147.8v-11.76h-2.88v-3.11h2.88v-3.7h3.72v3.7h3.61v3.11h-3.61v11.76h-3.72Z"/>
        <path class="cls-1" d="M615.1,148.14c-2.05,0-3.69-.75-4.9-2.24-1.21-1.49-1.82-3.34-1.82-5.54s.61-4.02,1.82-5.52c1.21-1.49,2.85-2.24,4.9-2.24.97,0,1.88.21,2.72.62s1.49,1,1.96,1.76v-2.04h3.72v14.87h-3.72v-2.04c-.47.77-1.12,1.35-1.96,1.76s-1.75.62-2.72.62ZM615.96,144.81c1.19,0,2.15-.43,2.87-1.29.72-.86,1.08-1.91,1.08-3.16s-.36-2.3-1.09-3.15c-.73-.85-1.68-1.27-2.86-1.27s-2.11.42-2.81,1.27c-.7.85-1.05,1.9-1.05,3.15s.35,2.33,1.05,3.18c.7.85,1.64,1.27,2.81,1.27Z"/>
        <path class="cls-1" d="M626.41,147.8v-14.87h3.72v1.93c.95-1.55,2.46-2.32,4.51-2.32,1.55,0,2.81.49,3.79,1.46.98.97,1.47,2.23,1.47,3.78v10.02h-3.72v-8.76c0-.99-.25-1.76-.74-2.32-.5-.56-1.22-.84-2.17-.84s-1.71.29-2.28.87-.85,1.34-.85,2.29v8.76h-3.72Z"/>
        <path class="cls-1" d="M648.67,148.14c-2.05,0-3.69-.75-4.9-2.24-1.21-1.49-1.82-3.34-1.82-5.54s.61-4.02,1.82-5.52c1.21-1.49,2.85-2.24,4.9-2.24.97,0,1.88.21,2.72.62s1.49,1,1.96,1.76v-6.8h3.72v19.63h-3.72v-2.04c-.47.77-1.12,1.35-1.96,1.76s-1.75.62-2.72.62ZM649.54,144.81c1.19,0,2.15-.43,2.87-1.29.72-.86,1.08-1.91,1.08-3.16s-.36-2.3-1.09-3.15c-.73-.85-1.68-1.27-2.86-1.27s-2.11.42-2.81,1.27c-.7.85-1.05,1.9-1.05,3.15s.35,2.33,1.05,3.18c.7.85,1.64,1.27,2.81,1.27Z"/>
        <path class="cls-1" d="M664.63,147.8v-.22l7.06-18.73h4.79l7.06,18.73v.22h-4.12l-1.37-3.89h-7.9l-1.4,3.89h-4.12ZM671.23,140.75h5.68l-2.83-7.9-2.86,7.9Z"/>
        <path class="cls-1" d="M685.07,147.8v-14.87h3.72v2.18c.86-1.68,2.14-2.52,3.84-2.52.52,0,.96.11,1.32.34v3.11h-.2c-.28-.09-.65-.14-1.12-.14-1.19,0-2.13.4-2.81,1.19-.68.79-1.02,1.82-1.02,3.07v7.64h-3.72Z"/>
        <path class="cls-1" d="M695.68,147.8v-14.87h3.72v1.93c.41-.73,1.01-1.3,1.79-1.71.78-.41,1.62-.62,2.52-.62,2.09,0,3.5.89,4.23,2.66.45-.82,1.11-1.47,1.97-1.95.87-.48,1.8-.71,2.79-.71,1.51,0,2.68.48,3.5,1.43.82.95,1.23,2.23,1.23,3.84v10h-3.72v-8.76c0-.95-.21-1.72-.63-2.29s-1.06-.87-1.92-.87-1.53.3-2.02.9-.73,1.35-.73,2.27v8.76h-3.72v-8.76c0-.95-.21-1.72-.63-2.29s-1.06-.87-1.92-.87-1.53.3-2.02.9-.73,1.35-.73,2.27v8.76h-3.72Z"/>
        <path class="cls-1" d="M732.83,146.01c-1.44,1.46-3.3,2.18-5.6,2.18s-4.16-.73-5.6-2.18-2.16-3.34-2.16-5.66.72-4.17,2.16-5.63,3.3-2.18,5.6-2.18,4.16.73,5.6,2.18,2.16,3.33,2.16,5.63-.72,4.2-2.16,5.66ZM724.31,143.53c.74.85,1.71,1.27,2.93,1.27s2.19-.42,2.93-1.27c.74-.85,1.11-1.91,1.11-3.18s-.37-2.3-1.12-3.15c-.75-.85-1.72-1.27-2.91-1.27s-2.17.42-2.91,1.27c-.75.85-1.12,1.9-1.12,3.15s.37,2.33,1.11,3.18Z"/>
        <path class="cls-1" d="M743.17,148.14c-2.05,0-3.69-.75-4.9-2.24-1.21-1.49-1.82-3.34-1.82-5.54s.61-4.02,1.82-5.52c1.21-1.49,2.85-2.24,4.9-2.24.97,0,1.88.21,2.72.62s1.49,1,1.96,1.76v-6.8h3.72v19.63h-3.72v-2.04c-.47.77-1.12,1.35-1.96,1.76s-1.75.62-2.72.62ZM744.03,144.81c1.19,0,2.15-.43,2.87-1.29.72-.86,1.08-1.91,1.08-3.16s-.36-2.3-1.09-3.15c-.73-.85-1.68-1.27-2.86-1.27s-2.11.42-2.81,1.27c-.7.85-1.05,1.9-1.05,3.15s.35,2.33,1.05,3.18c.7.85,1.64,1.27,2.81,1.27Z"/>
        <path class="cls-1" d="M757.95,131.23c-.43.41-.97.62-1.62.62s-1.19-.21-1.62-.62c-.43-.41-.64-.93-.64-1.57s.21-1.15.64-1.55c.43-.4.97-.6,1.62-.6s1.19.2,1.62.6c.43.4.64.92.64,1.55s-.21,1.16-.64,1.57ZM754.48,147.8v-14.87h3.72v14.87h-3.72Z"/>
        <path class="cls-1" d="M767.08,148.14c-2.05,0-3.69-.75-4.9-2.24-1.21-1.49-1.82-3.34-1.82-5.54s.61-4.02,1.82-5.52c1.21-1.49,2.85-2.24,4.9-2.24.97,0,1.88.21,2.72.62s1.49,1,1.96,1.76v-2.04h3.72v14.87h-3.72v-2.04c-.47.77-1.12,1.35-1.96,1.76s-1.75.62-2.72.62ZM767.94,144.81c1.19,0,2.15-.43,2.87-1.29.72-.86,1.08-1.91,1.08-3.16s-.36-2.3-1.09-3.15c-.73-.85-1.68-1.27-2.86-1.27s-2.11.42-2.81,1.27c-.7.85-1.05,1.9-1.05,3.15s.35,2.33,1.05,3.18c.7.85,1.64,1.27,2.81,1.27Z"/>
        <path class="cls-1" d="M790.93,148.22c-2.35,0-4.47-.48-6.36-1.43v-3.61h.22c1.94.99,4.12,1.48,6.55,1.48.93,0,1.75-.18,2.44-.53s1.04-.91,1.04-1.65c0-.56-.25-.99-.76-1.3s-1.17-.57-1.99-.8l-3.05-.76c-3.17-.78-4.76-2.56-4.76-5.32,0-1.94.73-3.41,2.18-4.4,1.46-.99,3.29-1.48,5.49-1.48s4.2.47,5.88,1.4v3.61h-.22c-1.77-.97-3.79-1.46-6.05-1.46-.9,0-1.68.18-2.34.53-.66.36-.99.89-.99,1.6,0,.99.85,1.69,2.55,2.1l3.02.76c1.53.39,2.74,1.03,3.64,1.92.9.89,1.34,2.03,1.34,3.43,0,1.31-.37,2.42-1.12,3.33-.75.91-1.69,1.57-2.84,1.97-1.15.4-2.44.6-3.88.6Z"/>
        <path class="cls-1" d="M801.77,152.14v-.22l3.28-6.5-6.02-12.29v-.2h4.14l3.92,8.65,4-8.65h4.12v.2l-9.32,19.01h-4.12Z"/>
        <path class="cls-1" d="M820.95,148.2c-2.04,0-3.82-.45-5.35-1.34v-3.36h.2c1.49.97,3.21,1.46,5.15,1.46.63,0,1.18-.11,1.64-.34.46-.22.69-.59.69-1.09,0-.28-.08-.52-.25-.71s-.35-.34-.55-.42c-.2-.08-.46-.17-.8-.27l-2.27-.56c-1.21-.32-2.18-.83-2.91-1.54-.73-.71-1.09-1.61-1.09-2.72,0-1.53.55-2.71,1.65-3.53,1.1-.82,2.5-1.23,4.2-1.23,1.96,0,3.63.45,5.01,1.34v3.36h-.22c-1.34-.97-2.94-1.46-4.79-1.46-.62,0-1.14.11-1.57.34-.43.22-.64.58-.64,1.06,0,.39.14.68.41.87s.67.35,1.19.48l2.24.59c1.19.3,2.17.81,2.91,1.54.75.73,1.12,1.63,1.12,2.72,0,1.61-.55,2.81-1.65,3.61s-2.54,1.2-4.31,1.2Z"/>
        <path class="cls-1" d="M830.52,147.8v-11.76h-2.88v-3.11h2.88v-3.7h3.72v3.7h3.61v3.11h-3.61v11.76h-3.72Z"/>
        <path class="cls-1" d="M845.92,148.2c-2.37,0-4.26-.71-5.66-2.13-1.4-1.42-2.1-3.32-2.1-5.71s.69-4.17,2.06-5.63,3.18-2.18,5.42-2.18,3.84.7,5.01,2.1c1.18,1.4,1.76,3.26,1.76,5.57,0,.45-.04.92-.11,1.4h-10.33c.07,1.06.54,1.89,1.39,2.46s1.87.87,3.07.87c1.98,0,3.73-.48,5.26-1.46h.2v3.36c-1.66.9-3.65,1.34-5.96,1.34ZM841.95,138.9h6.83c0-1.01-.27-1.8-.81-2.38-.54-.58-1.32-.87-2.32-.87-1.06,0-1.92.28-2.58.84-.65.56-1.03,1.36-1.12,2.41Z"/>
        <path class="cls-1" d="M854.66,147.8v-14.87h3.72v1.93c.41-.73,1.01-1.3,1.79-1.71.78-.41,1.62-.62,2.52-.62,2.09,0,3.5.89,4.23,2.66.45-.82,1.11-1.47,1.97-1.95.87-.48,1.8-.71,2.79-.71,1.51,0,2.68.48,3.5,1.43.82.95,1.23,2.23,1.23,3.84v10h-3.72v-8.76c0-.95-.21-1.72-.63-2.29s-1.06-.87-1.92-.87-1.53.3-2.02.9-.73,1.35-.73,2.27v8.76h-3.72v-8.76c0-.95-.21-1.72-.63-2.29s-1.06-.87-1.92-.87-1.53.3-2.02.9-.73,1.35-.73,2.27v8.76h-3.72Z"/>
        <path class="cls-1" d="M884.23,148.2c-2.04,0-3.82-.45-5.35-1.34v-3.36h.2c1.49.97,3.21,1.46,5.15,1.46.63,0,1.18-.11,1.64-.34.46-.22.69-.59.69-1.09,0-.28-.08-.52-.25-.71s-.35-.34-.55-.42c-.2-.08-.46-.17-.8-.27l-2.27-.56c-1.21-.32-2.18-.83-2.91-1.54-.73-.71-1.09-1.61-1.09-2.72,0-1.53.55-2.71,1.65-3.53,1.1-.82,2.5-1.23,4.2-1.23,1.96,0,3.63.45,5.01,1.34v3.36h-.22c-1.34-.97-2.94-1.46-4.79-1.46-.62,0-1.14.11-1.57.34-.43.22-.64.58-.64,1.06,0,.39.14.68.41.87s.67.35,1.19.48l2.24.59c1.19.3,2.17.81,2.91,1.54.75.73,1.12,1.63,1.12,2.72,0,1.61-.55,2.81-1.65,3.61s-2.54,1.2-4.31,1.2Z"/>
      </g>
    </g>
  </g>
</svg>