<?xml version="1.0" encoding="UTF-8"?>
<svg id="Layer_2" data-name="Layer 2" xmlns="http://www.w3.org/2000/svg" viewBox="0 0 800 577.78">
  <defs>
    <style>
      .cls-1 {
        fill: currentColor;
      }

      .cls-2 {
        fill: currentColor;
      }
    </style>
  </defs>
  <g id="Layer_1-2" data-name="Layer 1">
    <g>
      <path class="cls-1" d="M0,90.2v87.58h125.07L0,90.2ZM103.64,577.78h185.24v-129.71l-185.24,129.71ZM511.11,448.09v129.69h185.22l-185.22-129.69ZM0,400v87.58l125.11-87.58H0ZM696.38,0h-185.27v129.71L696.38,0ZM800,487.6v-87.6h-125.13l125.13,87.6ZM800,177.78v-87.58l-125.09,87.58h125.09ZM288.89,0H103.64l185.24,129.71V0Z"/>
      <path class="cls-2" d="M558.67,400l215.82,151.13c10.54-10.86,18.12-24.24,22-38.87l-160.33-112.27h-77.49ZM288.89,400h-47.58L25.51,551.11c11.58,11.78,26.42,20.2,43.07,24.11l220.31-154.27v-20.96ZM511.11,177.78h47.58L774.49,26.67c-11.78-11.95-26.7-20.31-43.04-24.11l-220.33,154.27v20.96ZM241.31,177.78L25.51,26.67C14.98,37.53,7.4,50.91,3.49,65.53l160.33,112.24h77.49Z"/>
      <path class="cls-2" d="M466.67,222.22V0h-133.33v222.22H0v133.33h333.33v222.22h133.33v-222.22h333.33v-133.33h-333.33Z"/>
    </g>
  </g>
</svg>